#define archlinux2_width 14
#define archlinux2_height 14
static unsigned char archlinux2_bits[] = {
   0x00, 0x00, 0xc0, 0x00, 0xc0, 0x00, 0xc0, 0x00, 0xc0, 0x01, 0xe0, 0x01,
   0xf0, 0x03, 0xf0, 0x07, 0x38, 0x07, 0x38, 0x07, 0x3c, 0x0f, 0x1e, 0x1e,
   0x06, 0x18, 0x00, 0x00 };
