#define battery_width 18
#define battery_height 18
static unsigned char battery_bits[] = {
   0x00, 0x00, 0x00, 0x00, 0x00, 0x00, 0x00, 0x00, 0x00, 0x00, 0x00, 0x00,
   0x00, 0x00, 0x00, 0xfc, 0x7f, 0x00, 0x04, 0x40, 0x00, 0xf4, 0xdf, 0x00,
   0xf4, 0xdf, 0x00, 0xf4, 0xdf, 0x00, 0xf4, 0xdf, 0x00, 0x04, 0x40, 0x00,
   0xfc, 0x7f, 0x00, 0x00, 0x00, 0x00, 0x00, 0x00, 0x00, 0x00, 0x00, 0x00,
   0x00, 0x00, 0x00, 0x00, 0x00, 0x00 };
