#define ethernet3_width 16
#define ethernet3_height 16
static unsigned char ethernet3_bits[] = {
   0x00, 0x00, 0x00, 0x00, 0x00, 0x00, 0xfc, 0x7f, 0xfc, 0x7f, 0x1c, 0x70,
   0x0c, 0x60, 0x0c, 0x60, 0x0c, 0x60, 0x0c, 0x60, 0xac, 0x6a, 0xfc, 0x7f,
   0xfc, 0x7f, 0x00, 0x00, 0x00, 0x00, 0x00, 0x00 };
