#define _width 16
#define _height 16
static unsigned char _bits[] = {
   0x00, 0x00, 0x00, 0x00, 0x00, 0x00, 0x00, 0x00, 0xfe, 0xff, 0x02, 0x80,
   0xaa, 0xaa, 0x02, 0x80, 0x5a, 0xb5, 0x02, 0x80, 0xda, 0xb7, 0x02, 0x80,
   0xfe, 0xff, 0x00, 0x00, 0x00, 0x00, 0x00, 0x00 };
