#define _width 16
#define _height 16
static unsigned char _bits[] = {
   0x00, 0x00, 0x50, 0x0a, 0x00, 0x00, 0xf8, 0x1f, 0xea, 0x5f, 0xf8, 0x1f,
   0xfa, 0x5f, 0xf8, 0x1f, 0xf8, 0x1f, 0xfa, 0x5f, 0xf8, 0x1f, 0xfa, 0x57,
   0xf8, 0x1f, 0x00, 0x00, 0x50, 0x0a, 0x00, 0x00 };
