#define speaker2_width 16
#define speaker2_height 16
static unsigned char speaker2_bits[] = {
   0x00, 0x00, 0x00, 0x00, 0x00, 0x00, 0x80, 0x00, 0xc0, 0x00, 0xe0, 0x08,
   0xf8, 0x0a, 0xf8, 0x0a, 0xf8, 0x0a, 0xe0, 0x08, 0xc0, 0x00, 0x80, 0x00,
   0x00, 0x00, 0x00, 0x00, 0x00, 0x00, 0x00, 0x00 };
