/* XPM */
static char * wifi2_xpm[] = {
"18 18 2 1",
" 	c None",
".	c #FFFFFF",
"                  ",
"                  ",
"                  ",
"                  ",
"      ......      ",
"    ..      ..    ",
"  ..          ..  ",
"  .   ......   .  ",
"    ..      ..    ",
"    .        .    ",
"      ......      ",
"      .    .      ",
"        ..        ",
"        ..        ",
"                  ",
"                  ",
"                  ",
"                  "};
