#define wifi_width 18
#define wifi_height 18
static unsigned char wifi_bits[] = {
   0x00, 0x00, 0x00, 0x00, 0x00, 0x00, 0x00, 0x00, 0x00, 0x00, 0x00, 0x00,
   0xc0, 0x0f, 0x00, 0x30, 0x30, 0x00, 0x0c, 0xc0, 0x00, 0xc4, 0x8f, 0x00,
   0x30, 0x30, 0x00, 0x10, 0x20, 0x00, 0xc0, 0x0f, 0x00, 0x40, 0x08, 0x00,
   0x00, 0x03, 0x00, 0x00, 0x03, 0x00, 0x00, 0x00, 0x00, 0x00, 0x00, 0x00,
   0x00, 0x00, 0x00, 0x00, 0x00, 0x00 };
